<svg id="Layer_2" data-name="Layer 2" xmlns="http://www.w3.org/2000/svg" viewBox="0 0 100 100"><defs><style>.cls-1{fill:#fff;}.cls-2{fill:none;stroke:#fff;stroke-linecap:round;stroke-linejoin:round;stroke-width:1.75px;}</style></defs><title>iconos uned</title><circle class="cls-1" cx="26.42" cy="39.44" r="2.85"/><path class="cls-1" d="M31.47,39.44a5,5,0,1,1-5-5A5,5,0,0,1,31.47,39.44Zm-5-7.65a7.65,7.65,0,1,0,7.65,7.65A7.65,7.65,0,0,0,26.42,31.79Z"/><circle class="cls-1" cx="61.57" cy="14.19" r="2.41"/><path class="cls-1" d="M65.83,14.19a4.26,4.26,0,1,1-4.26-4.26A4.26,4.26,0,0,1,65.83,14.19ZM61.57,7.73A6.46,6.46,0,1,0,68,14.19,6.46,6.46,0,0,0,61.57,7.73Z"/><circle class="cls-1" cx="54.53" cy="67.7" r="3.3"/><path class="cls-1" d="M60.37,67.7a5.84,5.84,0,1,1-5.84-5.84A5.84,5.84,0,0,1,60.37,67.7Zm-5.84-8.85a8.85,8.85,0,1,0,8.85,8.85A8.85,8.85,0,0,0,54.53,58.85Z"/><path class="cls-1" d="M46.6,75.86l-3.38,5a1,1,0,0,1-.8.43H37a1,1,0,0,0-1,1v6.09a1,1,0,0,0,1,1H72a1,1,0,0,0,1-1V82.27a1,1,0,0,0-1-1l-5.6.18A1,1,0,0,1,65.55,81l-2.93-5.09a1,1,0,0,0-.83-0.49,8.87,8.87,0,0,1-7.28,3.34,8.32,8.32,0,0,1-7.1-3.34A1,1,0,0,0,46.6,75.86Z"/><path class="cls-1" d="M43.91,64.41L28.63,49.24s3.52-1.19,5-2.83A13.52,13.52,0,0,0,36,41.7L51.23,56.78a26.52,26.52,0,0,0-4.49,3A17.89,17.89,0,0,0,43.91,64.41Z"/><path class="cls-1" d="M29.83,30.19a18.57,18.57,0,0,1,4.24,3.58,17.09,17.09,0,0,1,2,5.09L58.5,22s-3.08-1.45-4.21-3.08-0.88-6.16-.88-6.16Z"/><circle class="cls-1" cx="77.05" cy="28.07" r="3.72"/><path class="cls-1" d="M65.26,21.78s2.63-1.19,3.39-2.26A14.57,14.57,0,0,0,70,15.72l6,6.05s-2.62.73-3.55,1.78a14.2,14.2,0,0,0-1.82,3.55Z"/><polyline class="cls-2" points="72.15 40.48 70.8 34.13 77.05 28.07 83.19 34.27 81.84 40.48"/></svg>