<?xml version="1.0" encoding="UTF-8" standalone="no"?>
<svg
   xmlns:dc="http://purl.org/dc/elements/1.1/"
   xmlns:cc="http://creativecommons.org/ns#"
   xmlns:rdf="http://www.w3.org/1999/02/22-rdf-syntax-ns#"
   xmlns:svg="http://www.w3.org/2000/svg"
   xmlns="http://www.w3.org/2000/svg"
   xmlns:sodipodi="http://sodipodi.sourceforge.net/DTD/sodipodi-0.dtd"
   xmlns:inkscape="http://www.inkscape.org/namespaces/inkscape"
   id="Layer_2"
   data-name="Layer 2"
   viewBox="0 0 100 100"
   version="1.1"
   sodipodi:docname="lcd_icon.svg"
   inkscape:version="1.0.1 (3bc2e813f5, 2020-09-07)">
  <metadata
     id="metadata35">
    <rdf:RDF>
      <cc:Work
         rdf:about="">
        <dc:format>image/svg+xml</dc:format>
        <dc:type
           rdf:resource="http://purl.org/dc/dcmitype/StillImage" />
        <dc:title>iconos uned</dc:title>
      </cc:Work>
    </rdf:RDF>
  </metadata>
  <sodipodi:namedview
     pagecolor="#8a8a8a"
     bordercolor="#666666"
     borderopacity="1"
     objecttolerance="10"
     gridtolerance="10"
     guidetolerance="10"
     inkscape:pageopacity="0"
     inkscape:pageshadow="2"
     inkscape:window-width="1920"
     inkscape:window-height="1001"
     id="namedview33"
     showgrid="false"
     inkscape:zoom="5.8689863"
     inkscape:cx="37.823119"
     inkscape:cy="50"
     inkscape:window-x="-9"
     inkscape:window-y="-9"
     inkscape:window-maximized="1"
     inkscape:current-layer="Layer_2" />
  <defs
     id="defs4">
    <style
       id="style2">.cls-1{fill:#fff;}.cls-2{fill:none;stroke:#fff;stroke-linecap:round;stroke-linejoin:round;stroke-width:1.75px;}</style>
  </defs>
  <title
     id="title6">iconos uned</title>
  <path
     d="M 94.822262,19.406353 H 5.5357807 A 4.6233158,4.2212244 0 0 0 0.91751427,23.622967 V 72.816803 A 4.6233158,4.2212244 0 0 0 5.5357807,77.033417 H 41.7122 v 2.811076 h -7.69711 a 1.5394221,1.4055381 0 0 0 0,2.811073 h 32.327865 a 1.5394221,1.4055381 0 0 0 0,-2.811073 h -7.697111 v -2.811076 h 36.176418 a 4.6233158,4.2212244 0 0 0 4.618267,-4.216614 V 23.622967 A 4.6233158,4.2212244 0 0 0 94.822262,19.406353 Z M 55.567,77.033417 v 2.811076 H 44.791045 v -2.811076 z m 40.794684,-4.216614 a 1.5414311,1.4073723 0 0 1 -1.539422,1.405538 H 5.5357807 A 1.5411848,1.4071474 0 0 1 3.9963586,72.816803 V 23.622967 A 1.5411848,1.4071474 0 0 1 5.5357807,22.217429 H 94.822262 a 1.5414311,1.4073723 0 0 1 1.539422,1.405538 z"
     id="path2"
     style="stroke-width:0.735479;fill:#ffffff" />
  <path
     d="m 60.233365,36.701745 -22.32199,21.083074 a 1.5392242,1.4053573 0 1 0 2.213689,1.953206 L 62.4463,38.654951 A 1.5389474,1.4051046 0 1 0 60.233381,36.701745 Z M 39.248602,51.645885 A 1.5345961,1.4011317 0 0 0 40.36596,51.207358 L 50.405656,41.54428 A 1.5392818,1.4054099 0 1 0 48.171693,39.61026 L 38.13199,49.273337 a 1.5392297,1.4053624 0 0 0 1.116604,2.372548 z m 18.698937,-4.685361 -10.040065,9.663074 a 1.5397876,1.4058718 0 0 0 2.233963,1.935363 L 60.18151,48.895887 a 1.5397905,1.4058744 0 1 0 -2.233971,-1.935363 z"
     id="path4"
     style="stroke-width:0.735479;fill:#ffffff" />
</svg>
