<?xml version="1.0" encoding="UTF-8" standalone="no"?>
<svg
   xmlns:dc="http://purl.org/dc/elements/1.1/"
   xmlns:cc="http://creativecommons.org/ns#"
   xmlns:rdf="http://www.w3.org/1999/02/22-rdf-syntax-ns#"
   xmlns:svg="http://www.w3.org/2000/svg"
   xmlns="http://www.w3.org/2000/svg"
   xmlns:sodipodi="http://sodipodi.sourceforge.net/DTD/sodipodi-0.dtd"
   xmlns:inkscape="http://www.inkscape.org/namespaces/inkscape"
   id="Layer_3"
   data-name="Layer 3"
   viewBox="0 0 100 100"
   version="1.1"
   sodipodi:docname="sensor_icon.svg"
   inkscape:version="1.0.1 (3bc2e813f5, 2020-09-07)">
  <metadata
     id="metadata38">
    <rdf:RDF>
      <cc:Work
         rdf:about="">
        <dc:format>image/svg+xml</dc:format>
        <dc:type
           rdf:resource="http://purl.org/dc/dcmitype/StillImage" />
        <dc:title>sensors_icon</dc:title>
      </cc:Work>
    </rdf:RDF>
  </metadata>
  <sodipodi:namedview
     pagecolor="#a1a1a1"
     bordercolor="#666666"
     borderopacity="1"
     objecttolerance="10"
     gridtolerance="10"
     guidetolerance="10"
     inkscape:pageopacity="0"
     inkscape:pageshadow="2"
     inkscape:window-width="1920"
     inkscape:window-height="1001"
     id="namedview36"
     showgrid="false"
     inkscape:zoom="5.8689863"
     inkscape:cx="75.551487"
     inkscape:cy="62.675933"
     inkscape:window-x="-9"
     inkscape:window-y="-9"
     inkscape:window-maximized="1"
     inkscape:current-layer="Layer_3" />
  <defs
     id="defs4">
    <style
       id="style2">.cls-1{fill:#fff;}.cls-2,.cls-3{fill:none;}.cls-2{stroke:#fff;stroke-linecap:round;stroke-linejoin:round;stroke-width:2px;}</style>
  </defs>
  <title
     id="title6">sensors_icon</title>
  <ellipse
     class="cls-1"
     cx="50.806999"
     cy="9.2290754"
     rx="26.656918"
     ry="8.2168856"
     id="ellipse8"
     style="stroke-width:1.2904" />
  <path
     class="cls-1"
     d="m 26.945994,15.659114 3.293814,4.799706 a 72.246887,73.808504 0 0 0 20.528891,3.391096 58.880128,60.152822 0 0 0 19.826722,-3.078072 l 3.421482,-5.060559 A 68.136003,69.608762 0 0 1 50.768699,19.67626 82.383666,84.164387 0 0 1 26.945994,15.659114 Z"
     id="path10"
     style="stroke-width:1.2904" />
  <path
     class="cls-1"
     d="m 31.950548,23.106483 3.498084,4.343212 a 41.045015,41.932203 0 0 0 15.320067,2.725919 c 9.58781,0 14.451932,-2.465067 14.451932,-2.465067 l 3.689582,-4.408424 A 74.851298,76.469209 0 0 1 50.768699,25.988912 73.153324,74.734534 0 0 1 31.950548,23.106483 Z"
     id="path12"
     style="stroke-width:1.2904" />
  <g
     id="Icons_new_Arranged_Names"
     data-name="Icons new Arranged Names"
     transform="matrix(1.2766723,0,0,1.3042675,-13.064916,-10.530578)">
    <g
       id="_100_Pressure_Reading"
       data-name="100 Pressure Reading">
      <path
         id="Oval_278_copy_2"
         data-name="Oval 278 copy 2"
         class="cls-1"
         d="m 63.44,75.22 a 13.35,13.35 0 1 0 -25.55,5.45 16.81,16.81 0 0 0 -2,1 15.58,15.58 0 1 1 28.39,0 16.81,16.81 0 0 0 -2,-1 13.31,13.31 0 0 0 1.16,-5.45 z M 49,63 v 4.45 h 2.23 V 63 Z m 7.42,1.69 -2.62,3.6 1.8,1.31 2.59,-3.6 z m 5,5.73 -4.23,1.38 0.69,2.12 4.23,-1.38 z m 0.67,7.58 -4.23,-1.38 -0.69,2.12 4.23,1.38 z M 38.76,80.09 43,78.71 42.31,76.59 38.07,78 Z M 38.07,72.51 42.3,73.89 43,71.77 38.77,70.39 Z M 42,66 l 1.8,-1.31 2.62,3.6 -1.8,1.31 z m 8.11,18.15 a 3.34,3.34 0 0 1 -1.55,-6.3 l 1.55,-9.28 1.55,9.28 a 3.34,3.34 0 0 1 -1.58,6.27 z" />
    </g>
  </g>
  <path
     class="cls-2"
     d="m 37.453008,38.040346 a 14.043395,14.346944 0 0 0 25.852613,0.547793"
     id="path17" />
  <path
     class="cls-2"
     d="m 25.592721,44.379087 c 4.519421,9.860263 15.0009,16.107705 26.159017,15.651212 A 27.512288,28.106966 0 0 0 75.178675,45.331203"
     id="path19" />
  <path
     class="cls-2"
     d="M 68.642112,70.334014 A 39.870477,40.732277 0 0 0 86.872994,51.891669"
     id="path21" />
  <path
     class="cls-2"
     d="M 32.984655,70.334014 A 39.934311,40.79749 0 0 1 13.898401,50.443932"
     id="path23" />
  <path
     class="cls-2"
     d="M 74.591405,81.798524 A 51.475428,52.58807 0 0 0 98.477944,58.699945"
     id="path25" />
  <path
     class="cls-2"
     d="M 27.150261,81.772439 A 51.411595,52.522857 0 0 1 2.2551521,56.860929"
     id="path27" />
  <path
     class="cls-3"
     d="m 74.591405,81.798524 a 55.318212,56.513914 0 0 1 -21.575762,5.36054 56.033149,57.244306 0 0 1 -25.865382,-5.386625 23.975906,24.494146 0 0 1 5.834394,-11.438425 40.355613,41.227899 0 0 0 35.746824,0 24.129107,24.650657 0 0 1 5.859926,11.46451 z"
     id="path29"
     style="stroke-width:1.2904" />
  <path
     class="cls-3"
     d="m 32.984655,70.334014 a 24.256775,24.781085 0 0 1 35.746824,0 40.355613,41.227899 0 0 1 -35.746824,0 z"
     id="path31"
     style="stroke-width:1.2904" />
  <path
     class="cls-3"
     d="m 75.178675,87.198192 a 24.307842,24.833256 0 0 1 -48.615682,0 23.312038,23.815926 0 0 1 0.600035,-5.41271 56.033149,57.244306 0 0 0 25.852615,5.373582 55.318212,56.513914 0 0 0 21.575762,-5.36054 24.00144,24.520231 0 0 1 0.58727,5.399668 z"
     id="path33"
     style="stroke-width:1.2904" />
</svg>
