<svg id="Layer_3" data-name="Layer 3" xmlns="http://www.w3.org/2000/svg" viewBox="0 0 100 100"><defs><style>.cls-1{fill:#fff;}.cls-2,.cls-3{fill:none;}.cls-2{stroke:#fff;stroke-linecap:round;stroke-linejoin:round;stroke-width:2px;}</style></defs><title>sensors_icon</title><ellipse class="cls-1" cx="50.03" cy="15.15" rx="20.88" ry="6.3"/><path class="cls-1" d="M31.34,20.08l2.58,3.68A56.59,56.59,0,0,0,50,26.36,46.12,46.12,0,0,0,65.53,24l2.68-3.88A53.37,53.37,0,0,1,50,23.16,64.53,64.53,0,0,1,31.34,20.08Z"/><path class="cls-1" d="M35.26,25.79L38,29.12a32.15,32.15,0,0,0,12,2.09c7.51,0,11.32-1.89,11.32-1.89l2.89-3.38A58.63,58.63,0,0,1,50,28,57.3,57.3,0,0,1,35.26,25.79Z"/><g id="Icons_new_Arranged_Names" data-name="Icons new Arranged Names"><g id="_100_Pressure_Reading" data-name="100 Pressure Reading"><path id="Oval_278_copy_2" data-name="Oval 278 copy 2" class="cls-1" d="M63.44,75.22a13.35,13.35,0,1,0-25.55,5.45,16.81,16.81,0,0,0-2,1,15.58,15.58,0,1,1,28.39,0,16.81,16.81,0,0,0-2-1A13.31,13.31,0,0,0,63.44,75.22ZM49,63v4.45h2.23V63H49Zm7.42,1.69-2.62,3.6,1.8,1.31L58.19,66Zm5,5.73-4.23,1.38,0.69,2.12,4.23-1.38ZM62.09,78l-4.23-1.38-0.69,2.12,4.23,1.38ZM38.76,80.09L43,78.71l-0.69-2.12L38.07,78Zm-0.69-7.58,4.23,1.38L43,71.77l-4.23-1.38ZM42,66l1.8-1.31,2.62,3.6-1.8,1.31Zm8.11,18.15a3.34,3.34,0,0,1-1.55-6.3l1.55-9.28,1.55,9.28A3.34,3.34,0,0,1,50.08,84.12Z"/></g></g><path class="cls-2" d="M39.57,37.24a11,11,0,0,0,20.25.42"/><path class="cls-2" d="M30.28,42.1c3.54,7.56,11.75,12.35,20.49,12A21.55,21.55,0,0,0,69.12,42.83"/><path class="cls-2" d="M64,62A31.23,31.23,0,0,0,78.28,47.86"/><path class="cls-2" d="M36.07,62A31.28,31.28,0,0,1,21.12,46.75"/><path class="cls-2" d="M68.66,70.79A40.32,40.32,0,0,0,87.37,53.08"/><path class="cls-2" d="M31.5,70.77A40.27,40.27,0,0,1,12,51.67"/><path class="cls-3" d="M68.66,70.79a43.33,43.33,0,0,1-16.9,4.11A43.89,43.89,0,0,1,31.5,70.77,18.78,18.78,0,0,1,36.07,62a31.61,31.61,0,0,0,28,0A18.9,18.9,0,0,1,68.66,70.79Z"/><path class="cls-3" d="M36.07,62a19,19,0,0,1,28,0A31.61,31.61,0,0,1,36.07,62Z"/><path class="cls-3" d="M69.12,74.93a19,19,0,0,1-38.08,0,18.26,18.26,0,0,1,.47-4.15,43.89,43.89,0,0,0,20.25,4.12,43.33,43.33,0,0,0,16.9-4.11A18.8,18.8,0,0,1,69.12,74.93Z"/></svg>